<svg width="165" height="51" viewBox="0 0 165 51" fill="none" xmlns="http://www.w3.org/2000/svg">
<g clip-path="url(#clip0_4446_5273)">
<path d="M25.2772 4.19128C36.9262 4.19128 46.3997 13.7483 46.3997 25.5C46.3997 37.2517 36.9262 46.8087 25.2772 46.8087C13.6281 46.8087 4.15465 37.2444 4.15465 25.5C4.15465 13.7556 13.6281 4.19128 25.2772 4.19128ZM25.2772 0C11.3143 0 0 11.4141 0 25.5C0 39.5859 11.3143 51 25.2772 51C39.24 51 50.5543 39.5859 50.5543 25.5C50.5543 11.4141 39.2327 0 25.2772 0Z" fill="#1D1D1B"/>
<path d="M10.2592 16.9486H24.615V21.3454H15.2288V24.421H23.7127V28.5829H15.2288V35.0497H10.252V16.9486H10.2592Z" fill="#1D1D1B"/>
<path d="M25.6117 16.9486H34.0956C36.8387 16.9486 38.7378 17.6753 39.9384 18.8864C40.9861 19.9434 41.5245 21.3161 41.5245 23.0997V23.1511C41.5245 25.9478 40.062 27.7828 37.8356 28.737L42.1139 35.0497H36.3949L32.7787 29.5665H30.574V35.0497H25.5972V16.9486H25.6117ZM33.8919 25.6395C35.5581 25.6395 36.555 24.81 36.555 23.4888V23.4374C36.555 21.9914 35.5072 21.2647 33.8628 21.2647H30.5813V25.6395H33.8919Z" fill="#1D1D1B"/>
<path d="M60.3188 17.734H68.1043V18.4974H61.141V23.0704H67.3985V23.8338H61.141V28.8839H60.3188V17.734Z" fill="#1D1D1B"/>
<path d="M69.7197 24.2522V17.734H70.5419V24.1714C70.5419 26.7992 71.9462 28.3113 74.2818 28.3113C76.6175 28.3113 77.9635 26.9387 77.9635 24.2448V17.7267H78.7857V24.1494C78.7857 27.3497 76.9376 29.0527 74.2527 29.0527C71.5679 29.0527 69.7197 27.3644 69.7197 24.2375V24.2522Z" fill="#1D1D1B"/>
<path d="M81.1064 17.734H81.8777L89.503 27.4378V17.734H90.2961V28.8839H89.6776L81.8922 18.9745V28.8839H81.0991V17.734H81.1064Z" fill="#1D1D1B"/>
<path d="M92.7993 17.734H96.481C99.9517 17.734 102.353 20.1416 102.353 23.2759V23.3053C102.353 26.4469 99.9517 28.8839 96.481 28.8839H92.7993V17.734ZM96.481 28.1205C99.5588 28.1205 101.502 25.9991 101.502 23.342V23.3126C101.502 20.6701 99.5588 18.5047 96.481 18.5047H93.6215V28.1278H96.481V28.1205Z" fill="#1D1D1B"/>
<path d="M104.361 17.734H109.003C110.364 17.734 111.455 18.1671 112.117 18.8351C112.641 19.3636 112.954 20.1123 112.954 20.905V20.9344C112.954 22.7988 111.579 23.8631 109.716 24.12L113.361 28.8839H112.321L108.799 24.2668H105.183V28.8839H104.361V17.734ZM108.908 23.5181C110.757 23.5181 112.132 22.5786 112.132 20.9711V20.9417C112.132 19.4443 110.96 18.5047 108.959 18.5047H105.183V23.5255H108.908V23.5181Z" fill="#1D1D1B"/>
<path d="M119.197 17.6533H119.99L125.134 28.8839H124.232L122.828 25.7642H116.308L114.904 28.8839H114.053L119.204 17.6533H119.197ZM122.486 25.0155L119.583 18.5635L116.665 25.0155H122.493H122.486Z" fill="#1D1D1B"/>
<path d="M126.793 17.734H127.615V28.8839H126.793V17.734Z" fill="#1D1D1B"/>
<path d="M129.515 27.2617L130.053 26.6377C131.268 27.7681 132.389 28.2966 134.019 28.2966C135.648 28.2966 136.813 27.3571 136.813 26.0799V26.0505C136.813 24.8687 136.194 24.1861 133.684 23.6796C131.028 23.1364 129.958 22.2263 129.958 20.538V20.5086C129.958 18.8497 131.457 17.5799 133.517 17.5799C135.125 17.5799 136.187 18.0276 137.307 18.9378L136.783 19.5911C135.743 18.6809 134.695 18.3359 133.48 18.3359C131.85 18.3359 130.781 19.2755 130.781 20.4352V20.4646C130.781 21.6464 131.377 22.3584 134.004 22.9016C136.565 23.4301 137.635 24.3476 137.635 25.9771V26.0065C137.635 27.8048 136.1 29.0527 133.968 29.0527C132.2 29.0527 130.839 28.4655 129.515 27.269V27.2617Z" fill="#1D1D1B"/>
<path d="M139.65 17.734H140.472V28.8839H139.65V17.734Z" fill="#1D1D1B"/>
<path d="M143.084 17.734H143.856L151.481 27.4378V17.734H152.274V28.8839H151.656L143.87 18.9745V28.8839H143.077V17.734H143.084Z" fill="#1D1D1B"/>
<path d="M154.282 23.342V23.3126C154.282 20.3031 156.443 17.5432 159.747 17.5432C161.544 17.5432 162.686 18.0864 163.792 19.0112L163.254 19.6351C162.388 18.8718 161.376 18.2992 159.703 18.2992C157.018 18.2992 155.141 20.5967 155.141 23.2832V23.3126C155.141 26.1973 156.923 28.348 159.878 28.348C161.282 28.348 162.592 27.7608 163.399 27.0708V23.8705H159.703V23.1071H164.185V27.4085C163.188 28.304 161.646 29.082 159.841 29.082C156.349 29.082 154.282 26.4836 154.282 23.3493V23.342Z" fill="#1D1D1B"/>
<path d="M60.166 31.6878H65.8341C67.413 31.6878 68.6281 32.1356 69.443 32.9577C70.1343 33.655 70.5053 34.6386 70.5053 35.813V35.8497C70.5053 37.8683 69.4285 39.1382 67.8496 39.7254L70.8764 44.1883H67.6895L65.0337 40.1878H62.8946V44.1883H60.166V31.6878ZM65.6522 37.7582C66.9764 37.7582 67.7404 37.0462 67.7404 35.9892V35.9525C67.7404 34.7707 66.9255 34.1688 65.6013 34.1688H62.8946V37.7582H65.6595H65.6522Z" fill="#1D1D1B"/>
<path d="M72.0698 31.6878H81.4196V34.1321H74.7838V36.6718H80.6265V39.1161H74.7838V41.744H81.5142V44.1883H72.0771V31.6878H72.0698Z" fill="#1D1D1B"/>
<path d="M82.4893 37.9711V37.9344C82.4893 34.3817 85.2323 31.4676 88.9868 31.4676C91.2206 31.4676 92.5667 32.0769 93.8545 33.1852L92.1374 35.2772C91.1842 34.4698 90.3329 34.0073 88.8995 34.0073C86.9131 34.0073 85.3415 35.7763 85.3415 37.8977V37.9344C85.3415 40.2172 86.8986 41.8981 89.096 41.8981C90.0855 41.8981 90.9732 41.6485 91.6644 41.1494V39.3657H88.9213V36.9948H94.3056V42.4266C93.0323 43.513 91.2788 44.4085 89.0086 44.4085C85.1523 44.4085 82.4965 41.6779 82.4965 37.9784L82.4893 37.9711Z" fill="#1D1D1B"/>
<path d="M95.8335 38.8299V31.6878H98.562V38.7565C98.562 40.7897 99.5734 41.8467 101.232 41.8467C102.891 41.8467 103.903 40.8264 103.903 38.8446V31.6878H106.631V38.7418C106.631 42.5294 104.521 44.3864 101.196 44.3864C97.8708 44.3864 95.8335 42.5147 95.8335 38.8299Z" fill="#1D1D1B"/>
<path d="M108.516 31.6878H111.244V41.6852H117.422V44.1883H108.516V31.6878Z" fill="#1D1D1B"/>
<path d="M122.835 31.5924H125.353L130.664 44.1809H127.812L126.677 41.3769H121.438L120.303 44.1809H117.523L122.835 31.5924ZM125.702 38.9473L124.057 34.8955L122.413 38.9473H125.709H125.702Z" fill="#1D1D1B"/>
<path d="M132.971 34.2202H129.202V31.6878H139.468V34.2202H135.699V44.1883H132.971V34.2202Z" fill="#1D1D1B"/>
<path d="M139.584 37.9711V37.9344C139.584 34.3817 142.364 31.4676 146.184 31.4676C150.004 31.4676 152.754 34.345 152.754 37.8977V37.9344C152.754 41.487 149.975 44.4011 146.155 44.4011C142.335 44.4011 139.584 41.5237 139.584 37.9711ZM149.909 37.9711V37.9344C149.909 35.791 148.352 34.0073 146.155 34.0073C143.957 34.0073 142.437 35.7543 142.437 37.8977V37.9344C142.437 40.0777 143.994 41.8614 146.191 41.8614C148.389 41.8614 149.909 40.1144 149.909 37.9711Z" fill="#1D1D1B"/>
<path d="M154.29 31.6878H159.958C161.529 31.6878 162.752 32.1356 163.567 32.9577C164.258 33.655 164.629 34.6386 164.629 35.813V35.8497C164.629 37.8683 163.552 39.1382 161.973 39.7254L165 44.1883H161.813L159.157 40.1878H157.018V44.1883H154.29V31.6878ZM159.776 37.7582C161.107 37.7582 161.864 37.0462 161.864 35.9892V35.9525C161.864 34.7707 161.049 34.1688 159.725 34.1688H157.018V37.7582H159.776Z" fill="#1D1D1B"/>
<path d="M60.2969 5.4171H63.2437C64.0732 5.4171 64.728 5.66667 65.15 6.08506C65.4993 6.44473 65.6957 6.94387 65.6957 7.52375V7.54577C65.6957 8.63946 65.0409 9.30009 64.1314 9.56433L65.914 12.0894H64.5388L62.9163 9.76252H61.461V12.0894H60.2969V5.4171ZM63.1564 8.72021C63.9859 8.72021 64.517 8.27979 64.517 7.60449V7.58247C64.517 6.87047 64.0077 6.48143 63.1491 6.48143H61.461V8.72021H63.1637H63.1564Z" fill="#1D1D1B"/>
<path d="M66.6343 9.58636V9.56434C66.6343 8.12565 67.6457 6.94387 69.0718 6.94387C70.658 6.94387 71.4583 8.19905 71.4583 9.65242C71.4583 9.75518 71.4511 9.86529 71.4365 9.97539H67.7766C67.9003 10.7975 68.4751 11.2526 69.21 11.2526C69.7703 11.2526 70.1632 11.0397 70.5634 10.6507L71.2328 11.2526C70.7598 11.8251 70.1122 12.1921 69.1955 12.1921C67.7475 12.1921 66.6343 11.1351 66.6343 9.58636ZM70.3233 9.21201C70.2505 8.47064 69.8139 7.89076 69.0572 7.89076C68.3587 7.89076 67.8712 8.43394 67.7621 9.21201H70.3233Z" fill="#1D1D1B"/>
<path d="M72.5936 13.0216L73.0156 12.1554C73.5541 12.4858 74.1143 12.6913 74.791 12.6913C75.8097 12.6913 76.3699 12.1554 76.3699 11.1498V10.7608C75.9552 11.304 75.4386 11.6857 74.6164 11.6857C73.4449 11.6857 72.3535 10.8122 72.3535 9.32945V9.30743C72.3535 7.8247 73.4595 6.94387 74.6164 6.94387C75.4531 6.94387 75.977 7.3329 76.3626 7.80268V7.05397H77.505V11.0544C77.505 11.8985 77.2867 12.5298 76.872 12.9482C76.4209 13.4033 75.7223 13.6235 74.8201 13.6235C73.9979 13.6235 73.2339 13.4106 72.5936 13.0216ZM76.3772 9.31477V9.29275C76.3772 8.47064 75.7078 7.91278 74.9147 7.91278C74.1216 7.91278 73.4959 8.4633 73.4959 9.29275V9.31477C73.4959 10.1369 74.1289 10.6947 74.9147 10.6947C75.7005 10.6947 76.3772 10.1295 76.3772 9.31477Z" fill="#1D1D1B"/>
<path d="M78.938 5.18955H80.1677V6.28325H78.938V5.18955ZM78.9816 7.05397H80.124V12.082H78.9816V7.05397Z" fill="#1D1D1B"/>
<path d="M81.1865 11.4214L81.6958 10.6434C82.2416 11.0544 82.8164 11.2599 83.3257 11.2599C83.835 11.2599 84.097 11.0471 84.097 10.7168V10.6947C84.097 10.3057 83.5658 10.1736 82.9837 9.99007C82.2488 9.7772 81.4266 9.47625 81.4266 8.51468V8.49266C81.4266 7.53843 82.2125 6.95855 83.202 6.95855C83.8277 6.95855 84.5044 7.17876 85.0356 7.53109L84.5845 8.3532C84.1042 8.05959 83.5949 7.87608 83.1802 7.87608C82.7363 7.87608 82.4817 8.08895 82.4817 8.36788V8.3899C82.4817 8.76425 83.0201 8.91105 83.6022 9.1019C84.3298 9.32945 85.152 9.6671 85.152 10.5699V10.592C85.152 11.649 84.3371 12.1701 83.3039 12.1701C82.5981 12.1701 81.8123 11.9132 81.1865 11.4214Z" fill="#1D1D1B"/>
<path d="M86.549 10.6947V8.0449H85.916V7.05397H86.549V5.674H87.6914V7.05397H89.0302V8.0449H87.6914V10.5112C87.6914 10.959 87.9169 11.1425 88.3026 11.1425C88.5572 11.1425 88.7828 11.0838 89.0084 10.9737V11.9132C88.7246 12.0747 88.4117 12.1701 87.9824 12.1701C87.1457 12.1701 86.549 11.7958 86.549 10.6947Z" fill="#1D1D1B"/>
<path d="M89.7725 9.58636V9.56434C89.7725 8.12565 90.7838 6.94387 92.21 6.94387C93.7961 6.94387 94.5965 8.19905 94.5965 9.65242C94.5965 9.75518 94.5892 9.86529 94.5747 9.97539H90.9148C91.0385 10.7975 91.6133 11.2526 92.3482 11.2526C92.9085 11.2526 93.3014 11.0397 93.7016 10.6507L94.371 11.2526C93.898 11.8251 93.2504 12.1921 92.3337 12.1921C90.8857 12.1921 89.7725 11.1351 89.7725 9.58636ZM93.4614 9.21201C93.3887 8.47064 92.9521 7.89076 92.1954 7.89076C91.4969 7.89076 91.0094 8.43394 90.9003 9.21201H93.4614Z" fill="#1D1D1B"/>
<path d="M95.7681 7.05397H96.9104V8.18437C97.2233 7.43567 97.7981 6.91451 98.6785 6.95855V8.17703H98.613C97.6089 8.17703 96.9104 8.83765 96.9104 10.1662V12.082H95.7681V7.05397Z" fill="#1D1D1B"/>
<path d="M99.3184 9.58636V9.56434C99.3184 8.12565 100.33 6.94387 101.756 6.94387C103.342 6.94387 104.142 8.19905 104.142 9.65242C104.142 9.75518 104.135 9.86529 104.121 9.97539H100.461C100.584 10.7975 101.159 11.2526 101.894 11.2526C102.454 11.2526 102.847 11.0397 103.247 10.6507L103.917 11.2526C103.444 11.8251 102.796 12.1921 101.88 12.1921C100.432 12.1921 99.3184 11.1351 99.3184 9.58636ZM103.007 9.21201C102.935 8.47064 102.498 7.89076 101.741 7.89076C101.043 7.89076 100.555 8.43394 100.446 9.21201H103.007Z" fill="#1D1D1B"/>
<path d="M105.045 9.57901V9.55699C105.045 7.89076 106.165 6.95121 107.359 6.95121C108.181 6.95121 108.698 7.36226 109.061 7.83938V5.13817H110.204V12.0894H109.061V11.2526C108.69 11.7737 108.174 12.1921 107.359 12.1921C106.187 12.1921 105.045 11.2526 105.045 9.58636V9.57901ZM109.076 9.57901V9.55699C109.076 8.58808 108.399 7.94948 107.628 7.94948C106.857 7.94948 106.195 8.55872 106.195 9.55699V9.57901C106.195 10.5479 106.857 11.1865 107.628 11.1865C108.399 11.1865 109.076 10.5406 109.076 9.57901Z" fill="#1D1D1B"/>
<path d="M114.053 7.05397H115.224L116.228 10.5039L117.334 7.03929H118.317L119.422 10.5039L120.441 7.05397H121.591L119.961 12.1187H118.935L117.822 8.68351L116.701 12.1187H115.683L114.067 7.05397H114.053Z" fill="#1D1D1B"/>
<path d="M122.522 5.18955H123.752V6.28325H122.522V5.18955ZM122.566 7.05397H123.708V12.082H122.566V7.05397Z" fill="#1D1D1B"/>
<path d="M125.382 10.6947V8.0449H124.749V7.05397H125.382V5.674H126.524V7.05397H127.863V8.0449H126.524V10.5112C126.524 10.959 126.749 11.1425 127.135 11.1425C127.39 11.1425 127.615 11.0838 127.841 10.9737V11.9132C127.557 12.0747 127.244 12.1701 126.815 12.1701C125.978 12.1701 125.382 11.7958 125.382 10.6947Z" fill="#1D1D1B"/>
<path d="M129.02 5.13083H130.162V7.8247C130.482 7.35492 130.948 6.95121 131.719 6.95121C132.839 6.95121 133.494 7.71459 133.494 8.87435V12.082H132.352V9.22668C132.352 8.44862 131.966 8.00086 131.282 8.00086C130.598 8.00086 130.162 8.47064 130.162 9.2487V12.0894H129.02V5.13083Z" fill="#1D1D1B"/>
</g>
<defs>
<clipPath id="clip0_4446_5273">
<rect width="165" height="51" fill="white"/>
</clipPath>
</defs>
</svg>
